# xmcd
#
# Track frame offsets:
# 150
# 12632
# 25943
# 36729
# 58361
#
# Disc length: 971 seconds
#
#
# Revision: 0
# Processed by: cddbd v1.5.2PL0 Copyright (c) Steve Scherf et al.
# Submitted via: Nero 7, 11, 10, 0 
#
DISCID=4803c905
DTITLE=Johnny Carlevale - New England's Own Jump, Swing, Rhythm and Blues!
DYEAR=2005
DGENRE=Blues
TTITLE0=Keep-A-Knockin'
TTITLE1=Jump Tonight
TTITLE2=Everybody Rock
TTITLE3=Cool Down Baby
TTITLE4=She's The Apple Of My Eye
EXTD=
EXTT0=Keep-A-Knockin'
EXTT1=Jump Tonight
EXTT2=Everybody Rock
EXTT3=Cool Down Baby
EXTT4=She's The Apple Of My Eye
PLAYORDER=
